<svg xmlns="http://www.w3.org/2000/svg" viewBox="0 0 24 24" aria-hidden="true">
  <circle cx="12" cy="12" r="10" fill="#111"/>
  <path fill="#25F4EE" d="M12.2 8.4v6.1a2.6 2.6 0 1 1-2.4-2.6v2a.7.7 0 1 0 .7.7V7h1.7c.3 1.1 1.2 2 2.4 2.2v1.6c-.9-.1-1.8-.5-2.4-1.2z"/>
  <path fill="#FE2C55" d="M13.1 7.4c.4 1.1 1.2 1.8 2.4 2v1.2a4.3 4.3 0 0 1-2.4-.9v4.8a3.4 3.4 0 1 1-3.4-3.4h.2v1.4h-.2a2 2 0 1 0 2 2V7.4h1.4z"/>
  <path fill="#fff" d="M13.4 7.5c.3 1 .9 1.7 2 2v1c-.8-.1-1.5-.4-2-.9v4.9a3.1 3.1 0 1 1-3.1-3.1v1.1a2 2 0 1 0 2 2V7.5h1.1z"/>
</svg>
